<svg xmlns="http://www.w3.org/2000/svg" xmlns:xlink="http://www.w3.org/1999/xlink" id="Layer_1" x="0px" y="0px" width="160px" viewBox="0 0 553 231" enable-background="new 0 0 553 231" xml:space="preserve" height="67px">
<path xmlns="http://www.w3.org/2000/svg" width="60px" fill="#010202" opacity="0" stroke="none" d=" M426.000000,232.000000   C284.000000,232.000000 142.500000,232.000000 1.000000,232.000000   C1.000000,155.000000 1.000000,78.000000 1.000000,1.000000   C185.333328,1.000000 369.666656,1.000000 554.000000,1.000000   C554.000000,78.000000 554.000000,155.000000 554.000000,232.000000   C511.500000,232.000000 469.000000,232.000000 426.000000,232.000000  M404.300873,176.192078   C406.200073,188.021042 408.041199,199.860062 410.082611,211.664429   C410.302338,212.935028 411.662476,214.995285 412.532959,215.015747   C422.616180,215.252655 432.706970,215.167114 442.761108,215.167114   C442.761108,150.569794 442.761108,86.719986 442.761108,22.804367   C431.069122,22.804367 419.819305,22.804367 408.030457,22.804367   C408.030457,48.452290 408.030457,73.756454 408.030457,99.060623   C407.677948,99.087021 407.325439,99.113426 406.972900,99.139824   C402.870270,73.780594 398.767609,48.421371 394.618622,22.775661   C383.811890,22.775661 373.240051,22.775661 362.499573,22.775661   C362.499573,86.942909 362.499573,150.817215 362.499573,214.899261   C374.067108,214.899261 385.295990,214.899261 396.997711,214.899261   C396.997711,188.446136 396.997711,162.293503 396.997711,136.140869   C397.330292,136.113297 397.662903,136.085739 397.995483,136.058167   C400.054474,149.146851 402.113495,162.235535 404.300873,176.192078  M521.684875,211.320404   C531.358765,205.161865 534.876282,195.964157 534.867188,184.933075   C534.831055,141.108917 534.848450,97.284698 534.812744,53.460533   C534.810730,50.970100 534.657532,48.460655 534.328674,45.992851   C532.684631,33.657307 522.729187,23.543175 510.329681,23.095364   C492.028778,22.434418 473.694550,22.691086 455.374329,22.591852   C454.956635,22.589588 454.536743,23.003284 454.251160,23.153049   C454.251160,87.182060 454.251160,151.054718 454.251160,214.954910   C473.522461,214.954910 492.342072,215.108200 511.154602,214.811325   C514.477722,214.758896 517.771179,212.827316 521.684875,211.320404  M102.506485,215.193039   C109.114281,215.193039 115.722076,215.193039 122.917435,215.193039   C122.917435,199.823563 122.917435,185.096252 122.917435,170.266937   C126.946930,170.266937 130.371094,170.266937 134.433670,170.266937   C134.433670,185.255341 134.433670,199.988388 134.433670,214.807907   C146.293091,214.807907 157.506180,214.807907 168.818939,214.807907   C168.818939,150.636353 168.818939,86.851295 168.818939,22.811214   C157.414032,22.811214 146.194000,22.811214 134.449493,22.811214   C134.449493,25.120428 134.449493,27.083921 134.449493,29.047415   C134.449585,63.044758 134.449722,97.042099 134.449738,131.039444   C134.449738,141.355759 134.449356,141.359192 124.206718,140.662811   C123.915840,140.643036 123.642616,140.363571 122.848869,139.916946   C122.848869,138.409149 122.848938,136.617889 122.848862,134.826630   C122.847450,100.329330 122.847450,65.832031 122.843613,31.334726   C122.842621,22.450050 122.837044,22.449930 113.769226,22.449757   C105.328804,22.449594 96.888390,22.449724 88.598297,22.449724   C88.598297,87.114250 88.598297,150.993668 88.598297,215.193192   C93.203537,215.193192 97.357224,215.193192 102.506485,215.193039  M315.277740,184.704575   C308.884735,187.535477 305.866760,185.434235 305.862579,177.936874   C305.834625,128.105652 305.848694,78.274406 305.847107,28.443163   C305.847076,27.110172 306.081909,25.702303 305.724152,24.469551   C305.470032,23.593945 304.410217,22.314808 303.696045,22.305630   C292.928986,22.167265 282.159637,22.209700 271.366486,22.209700   C271.188293,23.479752 271.019073,24.123264 271.018951,24.766804   C271.009216,79.431099 270.897888,134.095810 271.090790,188.759415   C271.142944,203.536896 282.807373,214.789612 297.638580,215.126556   C306.633331,215.330887 315.636749,215.165680 324.636230,215.147537   C333.557800,215.129547 340.756470,211.543976 346.242462,204.546143   C350.902466,198.601944 352.023438,191.659302 352.017700,184.326324   C351.976746,131.995193 351.998718,79.664017 351.985077,27.332865   C351.984650,25.731647 351.813293,24.130476 351.722778,22.549017   C340.056274,22.549017 328.830841,22.549017 317.144073,22.549017   C317.144073,25.079994 317.143982,27.216597 317.144104,29.353199   C317.146637,78.351067 317.169708,127.348969 317.094055,176.346710   C317.090088,178.914902 316.247375,181.481766 315.277740,184.704575  M254.493851,204.937363   C259.387695,198.915741 260.579285,191.815323 260.575897,184.334747   C260.556244,141.185150 260.568512,98.035530 260.532776,54.885956   C260.530304,51.896320 260.396667,48.885937 260.031921,45.921135   C258.580170,34.119987 248.643387,23.779137 237.050476,23.126095   C225.940186,22.500242 214.741043,22.482876 203.631760,23.105051   C194.218796,23.632223 186.647400,28.572660 183.030273,37.394703   C180.829269,42.762875 179.654114,48.927666 179.614014,54.745625   C179.323380,96.893707 179.429626,139.044586 179.446930,181.194565   C179.448227,184.352646 179.626266,187.520126 179.905838,190.666931   C181.127945,204.422989 191.751312,214.664536 205.552307,215.060425   C215.040421,215.332596 224.542511,215.189087 234.037613,215.124176   C242.188431,215.068466 248.800507,211.651382 254.493851,204.937363  M59.347775,93.786575   C66.463577,92.750847 73.579376,91.715111 80.754242,90.670784   C80.754242,86.663956 80.754242,82.730377 80.754242,78.230461   C71.381683,82.112999 60.199295,76.560684 52.205498,85.643265   C51.619320,84.260857 51.125248,83.055016 50.599758,81.863022   C47.349731,74.490829 40.384422,70.661522 32.382809,71.839470   C26.148438,72.757263 22.448929,77.033150 21.808359,85.571907   C21.174847,94.016563 21.495674,102.528648 21.112242,110.998230   C20.954407,114.484581 22.398552,115.581253 25.588772,116.046822   C32.326622,117.030098 39.007973,118.396324 45.719376,119.566002   C57.293552,121.583160 68.872971,123.570229 80.681839,125.609947   C80.681839,121.371414 80.681839,117.657944 80.681839,113.727692   C72.761787,112.304207 65.118378,110.930450 56.271835,109.340446   C57.123184,104.206879 57.939178,99.286522 59.347775,93.786575  M73.706772,150.966888   C56.419582,147.891251 39.132389,144.815628 21.176542,141.621017   C21.176542,144.343750 21.426607,146.341904 21.125383,148.253174   C20.463037,152.455765 22.172192,154.127686 26.310907,154.674255   C33.165630,155.579544 39.949902,157.018250 46.770088,158.233307   C46.770088,167.691162 46.770088,176.636093 46.770088,185.879913   C38.266422,184.449081 30.017015,183.061020 21.184702,181.574890   C21.184702,185.171143 20.901361,188.009949 21.316290,190.742737   C21.496490,191.929550 22.974937,193.647247 24.097937,193.854431   C42.857307,197.315643 61.653816,200.575546 80.752991,203.934982   C80.752991,199.812195 80.752991,196.040482 80.752991,192.034927   C72.749100,190.556992 64.814362,189.091812 56.958736,187.641251   C56.958736,178.209915 56.958736,169.291412 56.958736,160.020706   C65.098969,161.404297 72.837654,162.719620 80.723663,164.059998   C80.723663,159.693466 80.723663,155.947495 80.723663,152.224533   C78.482399,151.793793 76.523537,151.417313 73.706772,150.966888  M71.587311,51.490837   C71.587311,54.721645 71.587311,57.952454 71.587311,61.745506   C65.785980,60.764393 61.067787,59.966457 55.999657,59.109341   C55.999657,49.664566 55.999657,40.539017 55.999657,30.968182   C52.795410,30.434032 49.921516,29.954954 46.177940,29.330898   C46.177940,38.881088 46.177940,47.887436 46.177940,57.319050   C40.632381,56.314644 35.940208,55.464798 30.750553,54.524853   C30.750553,46.790230 30.745628,39.328838 30.751854,31.867458   C30.758940,23.374687 30.580778,23.202419 21.473682,23.402218   C21.473682,37.145515 21.473682,50.897442 21.473682,64.967346   C41.195629,68.455193 60.813404,71.924614 80.764641,75.453011   C80.764641,60.835224 80.764641,46.746555 80.764641,32.368866   C77.721062,31.875509 74.883095,31.415482 71.586151,30.881056   C71.586151,37.870834 71.586151,44.183186 71.587311,51.490837  M35.567989,124.982819   C31.014507,124.212128 26.461025,123.441429 21.175621,122.546860   C21.175621,125.432762 21.386482,127.732712 21.127653,129.978531   C20.708595,133.614609 22.190056,134.951111 25.764181,135.281158   C30.049400,135.676895 34.270962,136.747818 38.524876,137.499237   C52.532059,139.973450 66.541412,142.435425 80.781433,144.942856   C80.781433,140.711182 80.781433,136.939987 80.781433,132.998444   C65.865517,130.341125 51.145912,127.718788 35.567989,124.982819  z"/>
<path fill="#2CAFBB" opacity="1.000000" stroke="none" d=" M404.236694,175.758148   C402.113495,162.235535 400.054474,149.146851 397.995483,136.058167   C397.662903,136.085739 397.330292,136.113297 396.997711,136.140869   C396.997711,162.293503 396.997711,188.446136 396.997711,214.899261   C385.295990,214.899261 374.067108,214.899261 362.499573,214.899261   C362.499573,150.817215 362.499573,86.942909 362.499573,22.775661   C373.240051,22.775661 383.811890,22.775661 394.618622,22.775661   C398.767609,48.421371 402.870270,73.780594 406.972900,99.139824   C407.325439,99.113426 407.677948,99.087021 408.030457,99.060623   C408.030457,73.756454 408.030457,48.452290 408.030457,22.804367   C419.819305,22.804367 431.069122,22.804367 442.761108,22.804367   C442.761108,86.719986 442.761108,150.569794 442.761108,215.167114   C432.706970,215.167114 422.616180,215.252655 412.532959,215.015747   C411.662476,214.995285 410.302338,212.935028 410.082611,211.664429   C408.041199,199.860062 406.200073,188.021042 404.236694,175.758148  z"/>
<path fill="#2CAFBB" opacity="1.000000" stroke="none" d=" M521.381592,211.541962   C517.771179,212.827316 514.477722,214.758896 511.154602,214.811325   C492.342072,215.108200 473.522461,214.954910 454.251160,214.954910   C454.251160,151.054718 454.251160,87.182060 454.251160,23.153049   C454.536743,23.003284 454.956635,22.589588 455.374329,22.591852   C473.694550,22.691086 492.028778,22.434418 510.329681,23.095364   C522.729187,23.543175 532.684631,33.657307 534.328674,45.992851   C534.657532,48.460655 534.810730,50.970100 534.812744,53.460533   C534.848450,97.284698 534.831055,141.108917 534.867188,184.933075   C534.876282,195.964157 531.358765,205.161865 521.381592,211.541962  M493.157684,186.096146   C499.240021,185.165222 499.979126,184.293472 499.982422,177.470383   C500.001129,138.496155 499.997711,99.521912 499.994537,60.547676   C499.993896,52.545761 497.390778,50.553673 488.578644,52.335789   C488.578644,54.167061 488.578644,56.123798 488.578644,58.080536   C488.578430,97.887558 488.578033,137.694580 488.578491,177.501602   C488.578522,179.333710 488.698547,181.174026 488.564789,182.996002   C488.356232,185.836349 489.902496,186.409958 493.157684,186.096146  z"/>
<path fill="#2CAEBA" opacity="1.000000" stroke="none" d=" M102.008698,215.193115   C97.357224,215.193192 93.203537,215.193192 88.598297,215.193192   C88.598297,150.993668 88.598297,87.114250 88.598297,22.449724   C96.888390,22.449724 105.328804,22.449594 113.769226,22.449757   C122.837044,22.449930 122.842621,22.450050 122.843613,31.334726   C122.847450,65.832031 122.847450,100.329330 122.848862,134.826630   C122.848938,136.617889 122.848869,138.409149 122.848869,139.916946   C123.642616,140.363571 123.915840,140.643036 124.206718,140.662811   C134.449356,141.359192 134.449738,141.355759 134.449738,131.039444   C134.449722,97.042099 134.449585,63.044758 134.449493,29.047415   C134.449493,27.083921 134.449493,25.120428 134.449493,22.811214   C146.194000,22.811214 157.414032,22.811214 168.818939,22.811214   C168.818939,86.851295 168.818939,150.636353 168.818939,214.807907   C157.506180,214.807907 146.293091,214.807907 134.433670,214.807907   C134.433670,199.988388 134.433670,185.255341 134.433670,170.266937   C130.371094,170.266937 126.946930,170.266937 122.917435,170.266937   C122.917435,185.096252 122.917435,199.823563 122.917435,215.193039   C115.722076,215.193039 109.114281,215.193039 102.008698,215.193115  z"/>
<path fill="#2CAFBB" opacity="1.000000" stroke="none" d=" M315.536438,184.376923   C316.247375,181.481766 317.090088,178.914902 317.094055,176.346710   C317.169708,127.348969 317.146637,78.351067 317.144104,29.353199   C317.143982,27.216597 317.144073,25.079994 317.144073,22.549017   C328.830841,22.549017 340.056274,22.549017 351.722778,22.549017   C351.813293,24.130476 351.984650,25.731647 351.985077,27.332865   C351.998718,79.664017 351.976746,131.995193 352.017700,184.326324   C352.023438,191.659302 350.902466,198.601944 346.242462,204.546143   C340.756470,211.543976 333.557800,215.129547 324.636230,215.147537   C315.636749,215.165680 306.633331,215.330887 297.638580,215.126556   C282.807373,214.789612 271.142944,203.536896 271.090790,188.759415   C270.897888,134.095810 271.009216,79.431099 271.018951,24.766804   C271.019073,24.123264 271.188293,23.479752 271.366486,22.209700   C282.159637,22.209700 292.928986,22.167265 303.696045,22.305630   C304.410217,22.314808 305.470032,23.593945 305.724152,24.469551   C306.081909,25.702303 305.847076,27.110172 305.847107,28.443163   C305.848694,78.274406 305.834625,128.105652 305.862579,177.936874   C305.866760,185.434235 308.884735,187.535477 315.536438,184.376923  z"/>
<path fill="#2CAFBA" opacity="1.000000" stroke="none" d=" M254.290741,205.236282   C248.800507,211.651382 242.188431,215.068466 234.037613,215.124176   C224.542511,215.189087 215.040421,215.332596 205.552307,215.060425   C191.751312,214.664536 181.127945,204.422989 179.905838,190.666931   C179.626266,187.520126 179.448227,184.352646 179.446930,181.194565   C179.429626,139.044586 179.323380,96.893707 179.614014,54.745625   C179.654114,48.927666 180.829269,42.762875 183.030273,37.394703   C186.647400,28.572660 194.218796,23.632223 203.631760,23.105051   C214.741043,22.482876 225.940186,22.500242 237.050476,23.126095   C248.643387,23.779137 258.580170,34.119987 260.031921,45.921135   C260.396667,48.885937 260.530304,51.896320 260.532776,54.885956   C260.568512,98.035530 260.556244,141.185150 260.575897,184.334747   C260.579285,191.815323 259.387695,198.915741 254.290741,205.236282  M225.843353,108.500076   C225.844238,93.170593 225.857391,77.841087 225.830933,62.511650   C225.827499,60.524357 225.661041,58.533981 225.496841,56.551098   C225.227753,53.301640 223.149918,51.997379 220.159576,51.736656   C216.876740,51.450432 215.206085,53.351551 214.489670,56.201035   C214.131729,57.624676 214.180145,59.170444 214.179504,60.661034   C214.163025,99.318039 214.162323,137.975052 214.169876,176.632065   C214.170166,178.128983 213.696732,180.111969 214.457108,181.022552   C216.089233,182.977188 218.302612,185.492462 220.433289,185.647736   C222.083328,185.768005 224.200226,182.826096 225.645416,180.897583   C226.295441,180.030167 225.840347,178.314240 225.840652,176.983322   C225.845901,154.488907 225.843887,131.994492 225.843353,108.500076  z"/>
<path fill="#2BACB7" opacity="1.000000" stroke="none" d=" M59.051472,94.076370   C57.939178,99.286522 57.123184,104.206879 56.271835,109.340446   C65.118378,110.930450 72.761787,112.304207 80.681839,113.727692   C80.681839,117.657944 80.681839,121.371414 80.681839,125.609947   C68.872971,123.570229 57.293552,121.583160 45.719376,119.566002   C39.007973,118.396324 32.326622,117.030098 25.588772,116.046822   C22.398552,115.581253 20.954407,114.484581 21.112242,110.998230   C21.495674,102.528648 21.174847,94.016563 21.808359,85.571907   C22.448929,77.033150 26.148438,72.757263 32.382809,71.839470   C40.384422,70.661522 47.349731,74.490829 50.599758,81.863022   C51.125248,83.055016 51.619320,84.260857 52.205498,85.643265   C60.199295,76.560684 71.381683,82.112999 80.754242,78.230461   C80.754242,82.730377 80.754242,86.663956 80.754242,90.670784   C73.579376,91.715111 66.463577,92.750847 59.051472,94.076370  M44.170860,107.204681   C45.292610,107.367767 46.414360,107.530861 48.489109,107.832497   C47.912777,101.857521 47.908024,96.168701 46.673714,90.760498   C45.649387,86.272346 40.929184,84.151993 36.359589,84.904564   C31.607550,85.687180 30.977673,89.291985 30.869820,93.123795   C30.762941,96.920990 30.846437,100.723541 30.846437,104.784195   C35.210316,105.585426 39.269928,106.330795 44.170860,107.204681  z"/>
<path fill="#2BACB7" opacity="1.000000" stroke="none" d=" M74.135727,151.003860   C76.523537,151.417313 78.482399,151.793793 80.723663,152.224533   C80.723663,155.947495 80.723663,159.693466 80.723663,164.059998   C72.837654,162.719620 65.098969,161.404297 56.958736,160.020706   C56.958736,169.291412 56.958736,178.209915 56.958736,187.641251   C64.814362,189.091812 72.749100,190.556992 80.752991,192.034927   C80.752991,196.040482 80.752991,199.812195 80.752991,203.934982   C61.653816,200.575546 42.857307,197.315643 24.097937,193.854431   C22.974937,193.647247 21.496490,191.929550 21.316290,190.742737   C20.901361,188.009949 21.184702,185.171143 21.184702,181.574890   C30.017015,183.061020 38.266422,184.449081 46.770088,185.879913   C46.770088,176.636093 46.770088,167.691162 46.770088,158.233307   C39.949902,157.018250 33.165630,155.579544 26.310907,154.674255   C22.172192,154.127686 20.463037,152.455765 21.125383,148.253174   C21.426607,146.341904 21.176542,144.343750 21.176542,141.621017   C39.132389,144.815628 56.419582,147.891251 74.135727,151.003860  z"/>
<path fill="#2BABB6" opacity="1.000000" stroke="none" d=" M71.586731,50.993187   C71.586151,44.183186 71.586151,37.870834 71.586151,30.881056   C74.883095,31.415482 77.721062,31.875509 80.764641,32.368866   C80.764641,46.746555 80.764641,60.835224 80.764641,75.453011   C60.813404,71.924614 41.195629,68.455193 21.473682,64.967346   C21.473682,50.897442 21.473682,37.145515 21.473682,23.402218   C30.580778,23.202419 30.758940,23.374687 30.751854,31.867458   C30.745628,39.328838 30.750553,46.790230 30.750553,54.524853   C35.940208,55.464798 40.632381,56.314644 46.177940,57.319050   C46.177940,47.887436 46.177940,38.881088 46.177940,29.330898   C49.921516,29.954954 52.795410,30.434032 55.999657,30.968182   C55.999657,40.539017 55.999657,49.664566 55.999657,59.109341   C61.067787,59.966457 65.785980,60.764393 71.587311,61.745506   C71.587311,57.952454 71.587311,54.721645 71.586731,50.993187  z"/>
<path fill="#2BACB7" opacity="1.000000" stroke="none" d=" M35.997147,125.039627   C51.145912,127.718788 65.865517,130.341125 80.781433,132.998444   C80.781433,136.939987 80.781433,140.711182 80.781433,144.942856   C66.541412,142.435425 52.532059,139.973450 38.524876,137.499237   C34.270962,136.747818 30.049400,135.676895 25.764181,135.281158   C22.190056,134.951111 20.708595,133.614609 21.127653,129.978531   C21.386482,127.732712 21.175621,125.432762 21.175621,122.546860   C26.461025,123.441429 31.014507,124.212128 35.997147,125.039627  z"/>
<path fill="#000101" opacity="0" stroke="none" d=" M492.706970,186.111725   C489.902496,186.409958 488.356232,185.836349 488.564789,182.996002   C488.698547,181.174026 488.578522,179.333710 488.578491,177.501602   C488.578033,137.694580 488.578430,97.887558 488.578644,58.080536   C488.578644,56.123798 488.578644,54.167061 488.578644,52.335789   C497.390778,50.553673 499.993896,52.545761 499.994537,60.547676   C499.997711,99.521912 500.001129,138.496155 499.982422,177.470383   C499.979126,184.293472 499.240021,185.165222 492.706970,186.111725  z"/>
<path fill="#020809" opacity="0" stroke="none" d=" M225.843414,109.000076   C225.843887,131.994492 225.845901,154.488907 225.840652,176.983322   C225.840347,178.314240 226.295441,180.030167 225.645416,180.897583   C224.200226,182.826096 222.083328,185.768005 220.433289,185.647736   C218.302612,185.492462 216.089233,182.977188 214.457108,181.022552   C213.696732,180.111969 214.170166,178.128983 214.169876,176.632065   C214.162323,137.975052 214.163025,99.318039 214.179504,60.661034   C214.180145,59.170444 214.131729,57.624676 214.489670,56.201035   C215.206085,53.351551 216.876740,51.450432 220.159576,51.736656   C223.149918,51.997379 225.227753,53.301640 225.496841,56.551098   C225.661041,58.533981 225.827499,60.524357 225.830933,62.511650   C225.857391,77.841087 225.844238,93.170593 225.843414,109.000076  z"/>
<path fill="#010405" opacity="0" stroke="none" d=" M43.750198,107.140427   C39.269928,106.330795 35.210316,105.585426 30.846437,104.784195   C30.846437,100.723541 30.762941,96.920990 30.869820,93.123795   C30.977673,89.291985 31.607550,85.687180 36.359589,84.904564   C40.929184,84.151993 45.649387,86.272346 46.673714,90.760498   C47.908024,96.168701 47.912777,101.857521 48.489109,107.832497   C46.414360,107.530861 45.292610,107.367767 43.750198,107.140427  z"/>
</svg>